inDegrees=no
num_controls=7
num_derivatives=13
num_iterations=126
num_multipliers=7
num_parameters=0
num_slacks=7
num_states=26
objective=0.477046
objective_accelerations=0.044738
objective_balance=0.003631
objective_effort=0.040727
objective_height=0.382290
objective_ligament=0.005659
solver_duration=1826.107308
status=Solve_Succeeded
success=true
DataType=double
version=3
OpenSimVersion=4.5
endheader
time	/jointset/ground_pelvis/pelvis_tilt/value	/jointset/ground_pelvis/pelvis_tx/value	/jointset/ground_pelvis/pelvis_ty/value	/jointset/hip_l/hip_flexion_l/value	/jointset/hip_l/hip_adduction_l/value	/jointset/hip_l/hip_rotation_l/value	/jointset/back/lumbar_extension/value	/jointset/patellofemoral_l/patellar_flexion_l/value	/jointset/knee_l/knee_flexion_l/value	/jointset/knee_l/knee_adduction_l/value	/jointset/knee_l/knee_rotation_l/value	/jointset/ankle_l/ankle_angle_l/value	/jointset/subtalar_l/subtalar_angle_l/value	/jointset/ground_pelvis/pelvis_tilt/speed	/jointset/ground_pelvis/pelvis_tx/speed	/jointset/ground_pelvis/pelvis_ty/speed	/jointset/hip_l/hip_flexion_l/speed	/jointset/hip_l/hip_adduction_l/speed	/jointset/hip_l/hip_rotation_l/speed	/jointset/back/lumbar_extension/speed	/jointset/patellofemoral_l/patellar_flexion_l/speed	/jointset/knee_l/knee_flexion_l/speed	/jointset/knee_l/knee_adduction_l/speed	/jointset/knee_l/knee_rotation_l/speed	/jointset/ankle_l/ankle_angle_l/speed	/jointset/subtalar_l/subtalar_angle_l/speed	/forceset/tau_hip_flexion_l	/forceset/tau_hip_adduction_l	/forceset/tau_hip_rotation_l	/forceset/tau_knee_flexion_l	/forceset/tau_ankle_angle_l	/forceset/tau_subtalar_angle_l	/forceset/tau_lumbar_extension	lambda_cid13_p0	lambda_cid13_p1	lambda_cid13_p2	lambda_cid13_p3	lambda_cid13_p4	lambda_cid13_p5	lambda_cid14_p0	/jointset/ground_pelvis/pelvis_tilt/accel	/jointset/ground_pelvis/pelvis_tx/accel	/jointset/ground_pelvis/pelvis_ty/accel	/jointset/hip_l/hip_flexion_l/accel	/jointset/hip_l/hip_adduction_l/accel	/jointset/hip_l/hip_rotation_l/accel	/jointset/back/lumbar_extension/accel	/jointset/patellofemoral_l/patellar_flexion_l/accel	/jointset/knee_l/knee_flexion_l/accel	/jointset/knee_l/knee_adduction_l/accel	/jointset/knee_l/knee_rotation_l/accel	/jointset/ankle_l/ankle_angle_l/accel	/jointset/subtalar_l/subtalar_angle_l/accel	gamma_cid13_p0	gamma_cid13_p1	gamma_cid13_p2	gamma_cid13_p3	gamma_cid13_p4	gamma_cid13_p5	gamma_cid14_p0
1.5	0.009493214795008699	-0.0115880015990994	0.8518887946601277	0.6749167550843954	-0.3223363373581743	-0.1321949753481648	-0.7961427825225601	0.7817250937177339	0.7817250937174625	-0.1017844530471638	-0.1745172549673354	0.1553397566493024	0.02504720281297911	0.3177716160688577	0.2320963642475373	0.4259248857693157	-1.989174994892354	0.08387196753694089	-0.6443345475042896	0.8401564078364256	-2.007608674330023	-2.007608674329764	-0.1482325267107737	-0.0004138836796392537	-0.45915533450579	-0.06537282055202487	-0.195287497819764	0.02520846987085699	-0.005473424012811254	-0.2289112800691673	0.06729126934904181	0.03833997030738989	0.2778176858387697	-20.5404095204556	-15.24917865693158	4.483597167030012	-7.957401868376254	-668.8502625769559	-73.14300324072947	-15.13912990291449	-0.0109729547414484	0.6579821506189822	-0.624262495246631	-0.6894113739526305	0.4755807445638689	-0.3773009353960453	1.97349527309461	-0.9958520703336283	-0.9958520703336217	-0.2471796586853162	0.01914759774637896	-0.2835510799842071	0.4592786896853348	3.473245541917884e-07	9.119763160470522e-07	-1.596574540047112e-06	-4.670334485236468e-08	4.287636336561082e-07	5.831774304272396e-07	3.05022388827625e-07
1.51	0.01267025344498256	-0.009234353977986125	0.8561160099165112	0.6549922121706024	-0.3214748058088893	-0.1386564776018653	-0.7876439798637555	0.761601425077879	0.7616014250778377	-0.1032811608871149	-0.1745214924084508	0.1507344024055033	0.02441533699968998	0.3175927455708353	0.2386076790826673	0.4194314248767886	-1.995477798637639	0.08843147177559819	-0.6478728386162894	0.8594922655241214	-2.016848824211145	-2.016848824211146	-0.1511256334942596	-0.0004114925864311671	-0.4618309657243252	-0.06098285208908558	-0.188164146453386	0.02423474575974485	-0.005239635785695027	-0.224978070859514	0.06778423070169595	0.03770172808751181	0.2708281151804471	-20.151026977264	-15.0960828833371	4.523056995852824	-7.845502485706894	-664.36590819614	-73.14147055350443	-15.86233954657995	-0.02783009962779133	0.643891616069544	-0.6748175802637444	-0.5623216037605552	0.4457170420118131	-0.3278597629090016	1.896852256553341	-0.8467182227628831	-0.8467182228019043	-0.3126950447771655	-0.006118239007068539	-0.2468401556792544	0.4314076448231532	3.082875374675197e-07	1.160823475209018e-06	-1.296566727132817e-06	9.200833122453019e-09	4.144015548749347e-07	6.298292848711448e-07	2.891353626450399e-07
1.52	0.01584420618951706	-0.006816356115299655	0.8602757046251679	0.6350123198735669	-0.3205677628615191	-0.1451505160794479	-0.7789551743800847	0.7413936305840603	0.7413936305842472	-0.1048072635662186	-0.1745250865594588	0.1461048376469405	0.02382788121507522	0.3171544349810069	0.2449664125621757	0.4124207762239417	-2.000244871540689	0.09297424715406302	-0.6508417922805724	0.8781569728096694	-2.024433845122725	-2.024433845122986	-0.154111494541624	-0.0002852256578273383	-0.463997437458504	-0.0564908148171494	-0.1810407950870122	0.02326102164862828	-0.005005847558567756	-0.221044861649862	0.06827719205434905	0.03706348586762876	0.2638385445221223	-19.76080160864094	-14.94451227214713	4.564334760278702	-7.776446101579879	-659.9016345613348	-73.18959214269934	-16.57448444107868	-0.06286097310268553	0.6274658794946576	-0.7277000473106189	-0.3822652055056471	0.4722349725253778	-0.2634334458526542	1.839265192665086	-0.66482627642531	-0.6648262764253106	-0.2657305114610357	0.04392276482556688	-0.1817191831129739	0.479692451484731	2.503953206159352e-07	1.480594597474756e-06	-8.94187501020897e-07	8.311904703830072e-08	3.843999374914321e-07	6.592244274155574e-07	2.670111341854215e-07
1.53	0.01901249376095046	-0.004335579167227849	0.8643628043521083	0.6149924031688093	-0.3196151861169441	-0.1516732653787612	-0.7700833075854203	0.7211183146921138	0.721118314692223	-0.1063621735891356	-0.1745279893802712	0.1414562493055453	0.02328614763340155	0.3164589030581348	0.2511586579417761	0.4049207086327122	-2.003481055029559	0.09753588346908722	-0.6536161239895744	0.8960855657552476	-2.030347865102781	-2.030347865102905	-0.1568826740449274	-0.000275708465350703	-0.4656307646437457	-0.05183957202663497	-0.1737009203282416	0.0221467496933301	-0.00483426530274091	-0.2175844745431254	0.06922324174943262	0.03623318694070815	0.256700635175051	-19.25083865950544	-14.71961729049947	4.581495046128779	-7.729412935428777	-655.6943580621361	-73.14161813193034	-17.27597664879595	-0.07953313583285859	0.6106011998533567	-0.7728666299717372	-0.2556900301013126	0.4471101698972613	-0.2704306945813182	1.750033290314439	-0.5125142077833137	-0.5125142077627788	-0.2842958218954537	-0.01761845062844474	-0.1406501636129855	0.4599710755717156	1.724694536290777e-07	1.875722430538252e-06	-3.830386483865033e-07	1.761771741414926e-07	3.377813103429549e-07	6.702843135667593e-07	2.382598783064552e-07
1.54	0.02217249924636434	-0.001793780298827927	0.8683725621001479	0.5949478456072577	-0.318617196567438	-0.158220957527396	-0.7610360794723381	0.7007922937305686	0.7007922937306028	-0.1079450922375092	-0.1745302139585852	0.1367940255568209	0.02279135265618039	0.3154980177771274	0.2571707966277988	0.3969523804437782	-2.005173042899377	0.1020568081403649	-0.6558303621448713	0.9132292364932365	-2.034574859042339	-2.034574859042327	-0.1597132196334499	-0.0001495771563612113	-0.4667245189243161	-0.04710309392664417	-0.1663610455694745	0.02103247773802992	-0.004662683046895984	-0.2141240874363907	0.07016929144451547	0.03540288801378471	0.2495627258279774	-18.73834919628319	-14.49676166282452	4.600804875659873	-7.721237954067429	-651.4792448638693	-73.12026555632126	-17.9677868660361	-0.1159316447297493	0.5914445407791346	-0.82135216685153	-0.07342608169561624	0.4640926437760693	-0.1514147351116353	1.682280751147227	-0.3274210683258447	-0.3274210683258394	-0.2776037285048589	0.06724558812816696	-0.07380460217871773	0.4967395133800113	1.126009355476606e-07	2.105703339564863e-06	-4.738329284828102e-08	2.404352232557813e-07	2.882837782116216e-07	6.612377997488983e-07	2.164036103958828e-07
1.55	0.02532143098302189	0.000807128765401578	0.8723003216870194	0.5748945157429231	-0.3175740803960643	-0.1647884293183203	-0.7518214155215877	0.6804327495314644	0.6804327495315076	-0.1095560028640673	-0.1745308317764666	0.1321236440627757	0.02234453286804247	0.3142450796531713	0.2629689220469948	0.3885280498426513	-2.005220395624024	0.1065599623487894	-0.6575803786511104	0.9295445870221236	-2.037038959855982	-2.037038959855724	-0.1624624444458881	3.854268119067675e-05	-0.4672632495135691	-0.04224612095670978	-0.1589410265630452	0.01979125583724598	-0.004563049422148742	-0.2107364336039995	0.07089858636934979	0.03456460282811633	0.2423094733806155	-18.3116329940097	-14.25551199416332	4.617287835679553	-7.541840982753622	-647.4402230626615	-73.1095280026545	-18.64519881188104	-0.1364771006207553	0.5677401717463303	-0.8636553443558079	0.0704726399143408	0.442167813106992	-0.1740780174120461	1.58231720855417	-0.1616904019837575	-0.1616904019469252	-0.2722459899476656	-0.003508569366530137	-0.03056182729652168	0.4820257318002766	7.353762381381508e-08	2.145406270896814e-06	8.607303342697244e-08	2.715105738176399e-07	2.354692468609109e-07	6.290252164014659e-07	2.024915677532418e-07
1.56	0.02845653289756102	0.003464767809674331	0.876141701600357	0.5548488848528937	-0.3164861844818612	-0.1713708578561125	-0.7424483670645895	0.6600574071614006	0.6600574071614608	-0.1111941385652113	-0.1745291891461792	0.1274505443548383	0.0219466527182039	0.3127320533535277	0.2685167926364484	0.379676445737022	-2.003633248038132	0.111012756706468	-0.6588217115186312	0.9449061377428002	-2.037734493233637	-2.037734493233133	-0.165158234551702	0.0003025124813324427	-0.4672681617027395	-0.03731516626677076	-0.1515210075566185	0.01855003393646251	-0.004463415797358415	-0.2073487797716109	0.07162788129418438	0.03372631764244892	0.2350562209332515	-17.88766180682355	-14.01436504945473	4.634453635919093	-7.379965766101575	-643.4642319635803	-73.12391724558562	-19.29635798579254	-0.1679492798672536	0.5413935748306423	-0.9068068677520326	0.2534739804120796	0.4540206736268908	-0.04967800736797043	1.491520789505144	0.0262924188716991	0.02629241887169877	-0.2669167871800197	0.08241558064613878	0.0329590778377541	0.5115358573809338	5.211864563258211e-08	2.159944279441667e-06	1.384091209563896e-07	2.855501972174732e-07	2.097603486553717e-07	6.12418651948651e-07	1.960138954892048e-07
1.57	0.03157513193037549	0.006176570522133146	0.8798925083243488	0.5348274299402053	-0.3153540300086347	-0.1779630008635731	-0.7329266326389572	0.6396840352109834	0.6396840352110963	-0.1128590186218377	-0.174524403098516	0.1227800905298736	0.02159844828708236	0.3109394568734606	0.2737948058181788	0.3704217052163036	-2.00037079261463	0.1154078927314041	-0.659517937347377	0.9592618679977459	-2.036632911397747	-2.03663291139772	-0.1678029301383504	0.0006696432210934972	-0.4667302634091337	-0.03231350859145363	-0.1438677687417655	0.01713357662081325	-0.004459720904426328	-0.2044088091544616	0.0728161466475804	0.03276426972476251	0.2276581874125632	-17.33921792930138	-13.73288655812935	4.635622222344504	-7.249435245149018	-639.7455109844598	-73.1086623686123	-19.9164944147858	-0.1921749439824681	0.5137184078734471	-0.9442421931422301	0.405654531508513	0.4304449877561787	-0.06607568088036425	1.380767235607576	0.1980987937898036	0.1980987937182049	-0.2606613136301828	0.016097793536825	0.07811792784243317	0.495967897081426	5.275508439211467e-08	2.143026134502649e-06	8.934491005351254e-08	2.782951616647749e-07	2.179334918812968e-07	6.153196111141079e-07	1.988291861984227e-07
1.58	0.03467435297600804	0.008939696010015086	0.8835488807333514	0.5148472042233895	-0.3141782871909934	-0.1845594022913705	-0.7232667072923519	0.6193308806244908	0.6193308806246565	-0.1145498287081721	-0.1745154985488866	0.1181177982323891	0.02130055786760885	0.3088564559171516	0.2787813477210736	0.3607895827391653	-1.995387408863557	0.1197304255895072	-0.6596733955862242	0.9725443219374231	-2.033691020448167	-2.033691020448618	-0.1703442404939159	0.001126212876682966	-0.4656358562067105	-0.02725236393716361	-0.1362145299269115	0.01571711930516902	-0.004456026011463068	-0.2014688385373132	0.07400441200097803	0.03180222180708171	0.220260153891874	-16.79445332725549	-13.45051236227404	4.636361108421592	-7.132259745514905	-636.102882583824	-73.11898888772424	-20.50097557303682	-0.2260301751156694	0.4830993190634966	-0.9822832590360441	0.5976596459263827	0.4395000402603063	0.05847551061167967	1.276865526451395	0.3943542416098001	0.3943542416097987	-0.2462397409634427	0.1003033638117891	0.1442608596012099	0.5234332531755045	5.090524342375068e-08	2.094324366429274e-06	4.82283813598444e-08	2.6827355480378e-07	2.213247849580007e-07	6.074847535152795e-07	1.974908562128992e-07
